<mxfile host="app.diagrams.net" modified="2023-05-20T18:50:11.624Z" agent="Mozilla/5.0 (Windows NT 10.0; Win64; x64) AppleWebKit/537.36 (KHTML, like Gecko) Chrome/110.0.0.0 YaBrowser/23.3.4.605 Yowser/2.5 Safari/537.36" etag="hhoCCK6QTO4J5TqsZ5BP" version="21.3.2" type="github">
  <diagram name="Страница 1" id="3Yvy9Zd1btKjQpknw6Np">
    <mxGraphModel dx="1205" dy="660" grid="1" gridSize="10" guides="1" tooltips="1" connect="1" arrows="1" fold="1" page="1" pageScale="1" pageWidth="827" pageHeight="1169" math="0" shadow="0">
      <root>
        <mxCell id="0" />
        <mxCell id="1" parent="0" />
        <mxCell id="sJjuNFrCT8mcAbIjtU3k-1" value="Составить блок-схему нахождения среднего арифметического из 4-х чисел." style="text;html=1;strokeColor=none;fillColor=none;align=center;verticalAlign=middle;whiteSpace=wrap;rounded=0;" vertex="1" parent="1">
          <mxGeometry x="60" y="80" width="240" height="40" as="geometry" />
        </mxCell>
        <mxCell id="sJjuNFrCT8mcAbIjtU3k-4" value="" style="edgeStyle=orthogonalEdgeStyle;rounded=0;orthogonalLoop=1;jettySize=auto;html=1;" edge="1" parent="1" source="sJjuNFrCT8mcAbIjtU3k-2" target="sJjuNFrCT8mcAbIjtU3k-3">
          <mxGeometry relative="1" as="geometry">
            <Array as="points">
              <mxPoint x="365" y="260" />
              <mxPoint x="365" y="260" />
            </Array>
          </mxGeometry>
        </mxCell>
        <mxCell id="sJjuNFrCT8mcAbIjtU3k-2" value="Start" style="ellipse;whiteSpace=wrap;html=1;" vertex="1" parent="1">
          <mxGeometry x="310" y="150" width="110" height="70" as="geometry" />
        </mxCell>
        <mxCell id="sJjuNFrCT8mcAbIjtU3k-12" value="" style="edgeStyle=orthogonalEdgeStyle;rounded=0;orthogonalLoop=1;jettySize=auto;html=1;" edge="1" parent="1" source="sJjuNFrCT8mcAbIjtU3k-3" target="sJjuNFrCT8mcAbIjtU3k-11">
          <mxGeometry relative="1" as="geometry" />
        </mxCell>
        <mxCell id="sJjuNFrCT8mcAbIjtU3k-3" value="a, b, c, d" style="shape=parallelogram;perimeter=parallelogramPerimeter;whiteSpace=wrap;html=1;fixedSize=1;" vertex="1" parent="1">
          <mxGeometry x="298" y="257" width="120.5" height="63" as="geometry" />
        </mxCell>
        <mxCell id="sJjuNFrCT8mcAbIjtU3k-8" value="" style="edgeStyle=orthogonalEdgeStyle;rounded=0;orthogonalLoop=1;jettySize=auto;html=1;" edge="1" parent="1" source="sJjuNFrCT8mcAbIjtU3k-5" target="sJjuNFrCT8mcAbIjtU3k-7">
          <mxGeometry relative="1" as="geometry" />
        </mxCell>
        <mxCell id="sJjuNFrCT8mcAbIjtU3k-5" value="sum = a + b + c + d" style="whiteSpace=wrap;html=1;" vertex="1" parent="1">
          <mxGeometry x="296.5" y="450" width="124" height="60" as="geometry" />
        </mxCell>
        <mxCell id="sJjuNFrCT8mcAbIjtU3k-15" value="" style="edgeStyle=orthogonalEdgeStyle;rounded=0;orthogonalLoop=1;jettySize=auto;html=1;" edge="1" parent="1" source="sJjuNFrCT8mcAbIjtU3k-7" target="sJjuNFrCT8mcAbIjtU3k-14">
          <mxGeometry relative="1" as="geometry" />
        </mxCell>
        <mxCell id="sJjuNFrCT8mcAbIjtU3k-7" value="res = sum&amp;nbsp; \&amp;nbsp; numSize" style="whiteSpace=wrap;html=1;" vertex="1" parent="1">
          <mxGeometry x="290" y="550" width="135" height="60" as="geometry" />
        </mxCell>
        <mxCell id="sJjuNFrCT8mcAbIjtU3k-13" value="" style="edgeStyle=orthogonalEdgeStyle;rounded=0;orthogonalLoop=1;jettySize=auto;html=1;" edge="1" parent="1" source="sJjuNFrCT8mcAbIjtU3k-11" target="sJjuNFrCT8mcAbIjtU3k-5">
          <mxGeometry relative="1" as="geometry" />
        </mxCell>
        <mxCell id="sJjuNFrCT8mcAbIjtU3k-11" value="numSize=4" style="whiteSpace=wrap;html=1;" vertex="1" parent="1">
          <mxGeometry x="290" y="350" width="137" height="60" as="geometry" />
        </mxCell>
        <mxCell id="sJjuNFrCT8mcAbIjtU3k-17" value="" style="edgeStyle=orthogonalEdgeStyle;rounded=0;orthogonalLoop=1;jettySize=auto;html=1;" edge="1" parent="1" source="sJjuNFrCT8mcAbIjtU3k-14" target="sJjuNFrCT8mcAbIjtU3k-16">
          <mxGeometry relative="1" as="geometry" />
        </mxCell>
        <mxCell id="sJjuNFrCT8mcAbIjtU3k-14" value="res" style="shape=document;whiteSpace=wrap;html=1;boundedLbl=1;" vertex="1" parent="1">
          <mxGeometry x="512.5" y="540" width="120" height="80" as="geometry" />
        </mxCell>
        <mxCell id="sJjuNFrCT8mcAbIjtU3k-16" value="end" style="ellipse;whiteSpace=wrap;html=1;" vertex="1" parent="1">
          <mxGeometry x="680" y="550" width="110" height="60" as="geometry" />
        </mxCell>
      </root>
    </mxGraphModel>
  </diagram>
</mxfile>
